<?xml version="1.0" standalone="no"?>
<!DOCTYPE svg PUBLIC "-//W3C//DTD SVG 20010904//EN"
 "http://www.w3.org/TR/2001/REC-SVG-20010904/DTD/svg10.dtd">
<svg version="1.0" xmlns="http://www.w3.org/2000/svg"
 width="1024.000000pt" height="1024.000000pt" viewBox="0 0 1024.000000 1024.000000"
 preserveAspectRatio="xMidYMid meet">

<g transform="translate(0.000000,1024.000000) scale(0.100000,-0.100000)"
fill="#000000" stroke="none">
<path d="M5763 7630 c-141 -29 -232 -150 -220 -296 16 -201 229 -315 407 -218
94 51 140 133 140 248 0 78 -31 147 -90 199 -67 61 -149 84 -237 67z"/>
<path d="M4425 7069 c-167 -24 -298 -91 -421 -214 -76 -75 -99 -106 -132 -176
-86 -179 -95 -371 -30 -594 64 -214 71 -333 27 -450 -40 -108 -112 -164 -323
-255 -285 -123 -420 -252 -493 -475 -38 -116 -44 -288 -14 -405 79 -312 292
-485 671 -545 351 -55 424 -122 474 -435 34 -210 99 -353 216 -471 124 -126
253 -174 444 -167 174 7 281 55 410 183 90 90 154 185 237 355 76 155 130 222
216 267 122 65 238 63 445 -8 64 -22 147 -46 185 -54 297 -63 569 85 639 348
31 118 7 283 -61 422 -20 39 -78 125 -130 190 -130 164 -158 218 -163 321 -8
144 40 235 219 420 60 62 129 144 153 182 110 170 150 370 111 557 -8 39 -36
113 -61 165 -40 81 -61 109 -143 190 -74 74 -114 105 -178 138 -169 88 -351
107 -513 56 -96 -30 -146 -54 -310 -148 -138 -80 -216 -106 -314 -106 -168 0
-296 87 -412 278 -116 193 -222 300 -369 373 -126 62 -236 79 -380 58z"/>
<path d="M6089 3177 c-100 -28 -174 -90 -220 -183 -33 -68 -34 -206 -2 -276
101 -219 394 -263 552 -82 57 64 76 118 75 209 -1 105 -29 178 -93 244 -76 78
-211 116 -312 88z"/>
</g>
</svg>
